<?xml version="1.0" standalone="no"?>
<!DOCTYPE svg PUBLIC "-//W3C//DTD SVG 20010904//EN"
 "http://www.w3.org/TR/2001/REC-SVG-20010904/DTD/svg10.dtd">
<svg version="1.0" xmlns="http://www.w3.org/2000/svg"
 width="1380.000000pt" height="328.000000pt" viewBox="0 0 1380.000000 328.000000"
 preserveAspectRatio="xMidYMid meet">

<g transform="translate(0.000000,328.000000) scale(0.100000,-0.100000)"
fill="#000000" stroke="none">
<path d="M5278 3156 c-48 -13 -115 -59 -205 -140 -169 -152 -138 -387 63 -472
l63 -27 3 -66 3 -66 48 -3 c26 -2 47 -7 47 -13 0 -5 -4 -9 -10 -9 -18 0 -58
-86 -79 -170 -11 -47 -50 -211 -86 -365 -36 -154 -74 -316 -85 -360 -91 -373
-95 -414 -46 -535 38 -93 90 -155 187 -222 23 -17 22 -17 -54 -17 -89 -1 -129
-15 -172 -60 l-30 -32 0 -156 0 -157 -31 -8 c-39 -10 -93 -69 -101 -109 l-5
-29 -218 0 c-311 0 -490 -10 -490 -27 0 -11 428 -13 2595 -13 l2595 0 0 22 0
21 -1447 -5 c-797 -3 -1484 -2 -1527 1 -80 6 -80 6 -88 38 -10 40 -62 92 -99
100 -39 8 -43 29 -35 183 l7 128 -33 37 c-44 51 -82 65 -175 66 -64 0 -75 2
-59 12 153 97 238 255 223 416 -4 49 -45 235 -107 486 -19 75 -145 615 -155
662 -3 12 -21 42 -40 67 l-34 45 47 3 47 3 3 66 3 66 64 28 c153 65 215 225
144 373 -27 55 -168 185 -239 220 -54 26 -60 27 -250 29 -136 2 -209 -1 -242
-11z m474 -47 c55 -28 187 -140 214 -181 79 -120 35 -286 -89 -344 -66 -30
-81 -30 -95 2 -7 14 -28 32 -50 40 -20 9 -53 31 -72 49 -62 59 -110 85 -154
85 -51 0 -81 -15 -155 -80 -31 -27 -64 -50 -73 -50 -15 0 -39 -21 -62 -54 -12
-18 -15 -18 -63 -2 -130 43 -192 200 -128 325 29 58 149 171 219 206 48 24 56
25 258 25 193 0 212 -2 250 -21z m-14 -525 c19 -13 22 -24 22 -90 l0 -74 -260
0 -260 0 0 70 c0 112 -5 110 258 110 181 0 221 -3 240 -16z m-92 -224 c60 -29
87 -78 117 -205 14 -60 55 -234 91 -385 36 -151 83 -353 105 -447 58 -246 53
-344 -24 -458 -55 -80 -180 -164 -247 -165 l-26 0 30 32 c58 62 73 104 73 203
0 78 -4 97 -27 146 -16 31 -37 64 -47 73 -19 17 -21 17 -48 -14 l-29 -33 -23
62 c-13 37 -43 86 -74 124 l-52 62 -7 -85 c-4 -51 -16 -109 -30 -145 l-23 -60
-3 63 c-2 34 -7 62 -11 62 -12 0 -114 -127 -137 -170 -13 -24 -18 -56 -18
-105 0 -78 19 -126 74 -185 l31 -33 -37 6 c-101 17 -223 117 -271 224 -50 113
-46 170 42 528 12 50 115 486 171 730 21 89 36 118 79 152 46 37 62 41 179 42
81 1 108 -3 142 -19z m-95 -1187 c11 -22 22 -68 25 -102 l7 -60 39 47 c21 26
44 47 51 47 23 0 51 -78 55 -153 5 -93 -14 -146 -73 -201 -106 -97 -263 -76
-350 48 -27 38 -30 51 -30 115 0 67 3 78 35 125 19 28 38 51 43 51 4 0 7 -32
7 -71 l0 -72 31 39 c41 50 88 151 95 200 9 66 13 72 31 49 8 -11 24 -39 34
-62z m445 -541 c39 -31 44 -56 44 -201 l0 -141 -541 0 -540 0 3 151 3 151 33
29 32 29 473 0 c432 0 474 -2 493 -18z m130 -398 c24 -16 54 -62 54 -84 0 -7
-212 -10 -680 -10 -762 0 -717 -5 -641 71 l39 39 601 0 c542 0 604 -2 627 -16z"/>
<path d="M3152 2820 c-66 -41 -62 34 -62 -1310 0 -1305 -2 -1259 48 -1304 32
-28 100 -31 139 -7 71 45 68 14 71 623 l3 548 354 0 355 0 0 -542 c0 -497 2
-546 18 -578 37 -74 137 -90 196 -31 l31 31 0 1260 0 1260 -31 31 c-61 60
-164 47 -198 -26 -14 -29 -16 -108 -16 -599 l0 -566 -355 0 -355 0 0 548 c0
301 -5 565 -10 586 -13 57 -48 88 -107 93 -36 3 -56 -1 -81 -17z"/>
<path d="M8130 2824 c-40 -14 -63 -31 -76 -56 -21 -41 -21 -2475 0 -2517 39
-74 186 -64 216 15 6 15 10 174 10 380 l0 354 39 0 c105 0 230 -46 294 -108
40 -39 123 -195 267 -505 81 -173 93 -187 171 -187 34 0 47 6 76 35 32 32 35
40 31 78 -5 36 -99 249 -255 577 -47 98 -137 190 -205 210 -50 15 -63 30 -28
30 56 0 158 87 213 180 59 102 260 547 265 587 4 38 1 46 -31 78 -30 30 -42
35 -80 35 -86 0 -96 -14 -242 -322 -71 -152 -140 -291 -153 -308 -54 -72 -163
-122 -294 -135 l-68 -7 0 749 c0 723 -1 749 -20 780 -10 17 -27 36 -37 41 -25
13 -75 22 -93 16z"/>
<path d="M7001 1995 c-243 -68 -410 -288 -411 -538 0 -217 106 -370 303 -435
38 -12 126 -29 195 -37 134 -15 204 -34 264 -71 205 -129 83 -461 -183 -499
-57 -8 -155 15 -219 52 -25 15 -70 52 -100 84 -80 82 -111 94 -170 64 -64 -33
-79 -125 -32 -191 94 -129 273 -224 457 -240 84 -8 210 17 292 57 91 45 197
150 240 240 110 224 70 476 -96 607 -98 78 -212 116 -387 131 -60 6 -126 15
-146 21 -61 18 -130 71 -156 120 -33 63 -28 163 14 239 114 211 396 229 554
35 45 -55 85 -70 134 -50 20 8 45 30 56 48 64 102 -54 264 -250 344 -55 23
-83 27 -185 30 -86 3 -135 0 -174 -11z"/>
<path d="M9925 1974 c-214 -47 -385 -211 -439 -420 -23 -90 -24 -861 -1 -948
50 -191 209 -353 404 -410 87 -26 249 -21 334 9 148 52 227 122 227 203 0 57
-17 88 -57 107 -41 20 -53 17 -171 -43 -90 -45 -97 -47 -180 -47 -74 0 -95 4
-143 28 -66 32 -132 99 -162 165 -21 46 -22 58 -22 462 l0 415 26 56 c34 73
96 134 168 167 118 55 266 27 361 -68 65 -65 94 -138 95 -235 0 -67 -4 -89
-28 -136 -36 -74 -108 -140 -180 -168 -49 -18 -79 -21 -202 -21 l-145 0 0
-121 0 -122 168 6 c131 4 181 9 232 26 184 59 327 206 375 387 20 76 20 222 0
299 -75 292 -368 474 -660 409z"/>
</g>
</svg>
